<svg xmlns="http://www.w3.org/2000/svg" width="430" height="499"><path style="fill:#010102;stroke:none" d="M0 0L0 499L430 499L430 0L0 0z"/><path style="fill:#dcb9cf;stroke:none" d="M121 43L121 39C118.877 39.3067 118.314 39.3821 117 41C115.86 37.2994 115.817 33.8549 116 30L111 29L112 35L111 36L107 35C109.724 31.403 112.735 27.6012 112 23C107.919 23.6494 104.001 22.85 100 24C100.355 26.8997 100.217 28.3517 99 31C99.472 32.4161 99.8137 32.8137 101 34C103.412 33.2327 104.058 33.3951 106 35C103.691 35.0002 101.301 34.8455 99.0031 35.1088C87.0953 36.4735 96.1147 51.2428 90.8071 57.4275C88.5428 60.066 85.1619 59.9241 82 60.4383C77.3102 61.2009 72.7331 62.6369 68 63C68.0353 65.26 67.8846 65.9002 67 68C68.0598 70.346 68.5746 71.518 68 74L74 78C73.2547 81.2538 73.8774 84.0187 71 86C71.6673 89.7406 74.9183 92.1443 75.7778 95.7778C76.1963 97.5471 75.0196 99.1406 75.9722 100.889C77.7358 104.125 80.4118 102.745 81 100L87 105C91.8447 104.05 92.0588 109.222 92.5748 113C93.8033 121.994 89.3458 131.483 86.8218 140C83.3968 151.557 81.7101 163.495 77.9105 175C69.127 201.597 50.9343 233.79 73 259C63.7385 259.077 52.3488 260.382 45.4282 267.214C34.9017 277.606 30.1441 292.595 24.8665 306C20.0117 318.331 15.2123 330.663 10.4059 343C7.99465 349.189 4.77218 355.459 3.38966 362C1.99375 368.605 3 376.269 3 383C3 395.99 3.01769 405.904 10.7708 417C30.5877 445.36 61.2582 450.932 92 460.746C113.126 467.491 134.77 472.585 156 479.039C178.762 485.959 201.915 493.611 226 493.29C233.528 493.19 240.084 491.955 247 488.896C250.435 487.376 253.298 484.309 257 483.472C264.663 481.74 273.202 484.172 281 482.073C300.583 476.8 312.828 459.392 330 449.781C363.118 431.246 411.532 424.75 424.949 383C426.745 377.411 427 371.814 427 366C427 358.434 427.705 350.473 426.385 343C422.597 321.563 406.424 306.539 393.765 290C389.239 284.086 379.867 273.235 381.527 265.04C382.762 258.944 391.183 256.776 396 254.511C403.907 250.793 410.697 245.425 413.812 237C416.144 230.692 416.163 219.419 414.16 213C412.903 208.971 409.69 205.387 409.893 201C410.161 195.212 413.439 189.813 413.907 184C414.359 178.379 414.722 171.541 413.621 166C412.92 162.472 410.905 159.247 410.941 155.576C410.986 150.947 412.943 146.517 413.675 142C414.509 136.856 414.121 131.199 413.985 126C413.422 104.423 402.296 78.439 385.996 64.3001C381.627 60.5106 376.79 56.6159 371 55.4676C361.724 53.6281 348.145 55.4878 340.318 49.1458C337.105 46.5429 338.19 41.631 337.711 38C336.998 32.5976 334.8 26.2564 330.66 22.4954C323.871 16.3265 312.571 14.0426 304 11.5725C295.377 9.08734 286.963 5.45801 278 4.20911C268.006 2.81659 257.088 4 247 4C240.112 4 231.702 2.70425 225.015 4.47455C217.655 6.4231 220.343 14.7163 213.981 17.7462C210.366 19.4678 205.803 18.4775 202 18.1667C195.774 17.6578 185.923 16.2467 180 17.804C176.443 18.7392 173.619 21.0532 170.286 22.4576C165.115 24.6369 159.452 25.2103 154.576 28.2538C147.608 32.6021 141.991 40.7342 134 43.0571C129.664 44.3176 125.392 43.1886 121 43M117 19C117.077 21.3537 116.791 22.7678 116 25C120.291 26.8212 123.247 27.9832 128 28C127.822 20.6504 124.479 16.8668 117 19z"/><path style="fill:#010102;stroke:none" d="M166 24L167 25L166 24M102 28L103 29L102 28M105.667 28.3333C105.222 28.7776 106.278 28.7222 106.333 28.6667C106.778 28.2221 105.722 28.2778 105.667 28.3333M104 40L107 48C109.322 45.566 110.807 43.1436 112 40C108.973 39.1233 107.027 39.1233 104 40M72.3333 64.6667C72.2777 64.7223 72.2223 65.7777 72.6667 65.3333C72.7222 65.2779 72.7778 64.2221 72.3333 64.6667z"/><path style="fill:#d85a88;stroke:none" d="M385 71C385 74.5281 386.584 74.1677 388 77C388.405 77.8104 388.808 81.2307 389 82C391.069 90.2758 388 100.038 388 108C388 112.308 387.067 117.554 385 121L384 120C385.024 124.949 387.094 129.889 386.942 135C386.81 139.446 384.932 143.767 383.709 148C382.63 151.735 381.877 156.611 378.606 159.143C375.801 161.314 371.396 161.561 368 162C371.449 163.715 374.982 164.591 377.258 168.044C379.681 171.721 379.053 176.805 378.996 181C378.819 194.145 371.421 207.761 367.314 220C364.512 228.348 361.828 238.917 356.211 245.87C349.764 253.85 340.033 253.49 336 244C333.997 249.147 337.489 254.867 342.09 257.467C349.984 261.926 359.303 261 368 261C363.588 262.655 357.035 262.508 353.394 265.589C350.216 268.277 349.293 273.277 347.87 277C344.306 286.324 341.505 295.664 338.124 305C329.941 327.596 322.195 350.341 313.986 372.985C309.995 383.993 304.729 394.539 302 406L312 406C305.634 408.013 298.604 409.171 292 408C280.637 431.372 273.43 457.688 255 477C258.407 481.422 264.91 480.237 270 479.389C280.537 477.633 290.434 474.976 299 468.194C301.415 466.283 312.978 458.503 306 457C309.07 450.872 309.41 444.435 311.546 438.09C312.764 434.469 315.39 431.743 316.46 427.961C317.662 423.713 317.652 419.023 319.483 415C322.623 408.1 329.974 406.079 333.312 399.945C335.281 396.33 335.711 391.846 337.204 388C342.117 375.339 346.777 362.705 351.384 350C358.193 331.221 367.816 312.59 372 293C376.347 297.211 378.253 303.18 383 307C383.871 298.822 378.196 295.863 375.869 288.91C374.635 285.224 376.179 281.655 376.7 278C377.522 272.225 375.742 265.458 378.434 260.054C381.214 254.471 388.736 252.364 394 249.985C402.884 245.97 409.117 240.056 410 230C407.087 234.493 404.64 235.462 400.714 238.723C397.59 241.317 395.805 244.25 392 246C392.655 237.697 395.717 231.568 398.321 223.91C402.375 211.992 406.073 199.249 408.961 187C410.455 180.66 410.895 172.441 409.736 166C409.113 162.537 406.881 159.595 406.88 156C406.878 152.592 408.398 149.357 408.816 146C409.898 137.313 410.415 128.702 409.282 120C407.207 104.073 400.147 79.1722 385 71z"/><path style="fill:#dcb9cf;stroke:none" d="M68 88L69 89L68 88z"/><path style="fill:#d85a88;stroke:none" d="M112 208C114.058 205.116 114.641 201.699 117 199C116.936 206.673 112.859 214.548 115 222C116.724 218.003 116.721 213.275 117.626 209C119.178 201.664 121.522 194.25 123.489 187C129.068 166.437 136.279 145.785 144.16 126C149.563 112.435 152.753 97.5293 168 91.4792C181.746 86.0249 196.188 97.2562 210 96C205.131 93.3532 199.347 92.3648 194 91.0031C183.779 88.3998 174.122 86.261 164 90.7253C153.487 95.3619 151.022 103.767 145.665 112.896C144.298 115.225 142.082 116.838 140.789 119.209C132.294 134.779 127.673 154.091 122.796 171C119.343 182.968 113.086 195.562 112 208z"/><path style="fill:#010102;stroke:none" d="M85 93C84.11 94.7447 83.547 96.125 83 98C84.4567 99.1034 84.8966 99.5434 86 101C88.9762 99.8248 89.7618 99.7618 92 102C92.4857 97.1902 89.3295 94.5639 85 93M78.3333 96.6667C78.2777 96.7223 78.2223 97.7777 78.6667 97.3333C78.7221 97.2779 78.7778 96.2222 78.3333 96.6667z"/><path style="fill:#6753a0;stroke:none" d="M208 96C213.654 100.633 223.985 101.275 231 103.291C250.976 109.031 271.58 115.038 292 119C288.397 113.836 277.829 113.481 272.015 111.692C259.802 107.936 247.374 105.364 235 102.116C226.152 99.7928 217.155 96.7478 208 96z"/><path style="fill:#d85a88;stroke:none" d="M355 97C356.506 97.683 357.315 97.8259 359 98C357.494 97.3169 356.685 97.1741 355 97z"/><path style="fill:#6753a0;stroke:none" d="M358 98C358.472 99.416 358.814 99.8138 360 101L357 102L357 105C359.54 107.484 359.888 109.476 360 113L356 112C355.853 117.094 353.581 121.226 356 126C352.946 126.654 353.064 128.007 353 131L350 131C349.655 138.414 344.969 144.372 344 152L340 150C339.696 155.93 338.34 161.825 334 166L336 161C330.725 160.114 330.406 162.908 327.876 166.911C323.972 173.088 321.239 179.709 320 187L314 188C313.823 189.645 313.859 189.647 313 191C312.337 195.724 309.362 199.074 310 204C304.632 207.356 304.967 211.3 303.211 216.714C301.605 221.67 299.234 225.797 298 231C300.545 232.635 300.779 233.993 301 237C297.136 237.3 295.652 238.089 295 242C292.636 242.482 292.482 242.636 292 245C288.144 245.653 286.919 247.256 286 251C280.644 251.714 277.373 254.17 275 259C274.469 248.199 279.999 237.961 280 227C276.284 234.615 274.642 244.749 271.917 253C270.65 256.836 269.818 260.634 266.847 263.569C260.493 269.849 254.759 269.854 247 272.866C244.341 273.898 239.475 273.152 239 276L236 275C235.874 277.399 235.428 279.217 237 281L229 286C229 287.797 229.014 287.521 230 289C216.615 289 204.781 283.145 192 279.861C165.25 272.988 138.876 264.831 112 258.361C103.008 256.196 93.6426 253.6 85 250.389C81.7031 249.164 77.1554 244.608 76 250L72 249C75.8782 266.715 101.91 268.665 116 273.164C132.395 278.398 149.418 282.145 166 286.745C186.645 292.474 207.125 299.447 228 304.208C238.135 306.519 248.21 309.703 258 313.135C262.881 314.846 267.424 315.088 270 320C259.435 318.577 250.425 312.708 240 311.134C232.117 309.944 226.408 310.166 224 319C217.272 319.19 210.392 320.957 204 323C202.956 329.77 192.309 335.675 186 337C187.139 338.015 187.612 338.309 189 339C186.979 341.295 186.742 344.834 184.683 346.799C181.974 349.386 179.366 347.853 178 352L174 351C169.701 355.029 166.53 354.877 161 354C163.34 357.557 166.188 360.794 167.291 365C170.934 378.891 163.308 395.286 152.05 403.406C145.01 408.484 133.277 413.036 125 408.121C101.939 394.429 106.252 363.41 129 351.442C137.872 346.774 144.947 348.906 154 351C144.615 341.932 127.528 347.805 119.09 355.329C106.172 366.847 99.2249 396.162 112.519 409.685C118.138 415.401 128.285 417.287 136 416.961C142.569 416.683 149.399 414.468 155 411.022C160.715 407.505 164.64 402.751 167.981 397C170.018 393.494 171.043 389.804 174 387C170.101 417.167 130.771 430.42 108.343 410.691C103.856 406.744 102.026 398.651 100.845 393C99.7932 387.966 96.7304 382.957 96.1582 377.985C95.6732 373.771 96.9647 369.265 97 365C94.2678 371.031 93.4989 378.06 90.4606 384C83.0849 398.419 65.4933 413.482 48 410.736C38.9711 409.319 32.1719 403.291 24 400L25 405C22.3685 407.614 26.4136 418.579 28 422C24.8387 421.724 22.021 420.958 19 420C23.4791 432.891 41.6266 442.614 54 446C52.3369 444.497 51.104 443.801 49 443C53.0799 442.497 56.1279 444.252 60 445.431C66.9792 447.555 74.0399 449.614 81.0394 451.612C108.342 459.404 135.618 467.529 163 475C161.521 475.986 161.797 476 160 476C163.751 478.795 168.392 479.624 173 480C171.494 479.317 170.685 479.174 169 479L169 477C181.157 478.671 192.716 484.995 205 486C201.829 486.802 199.232 486.401 196 486C202.248 489.749 211.853 489.997 219 490C226.638 490.003 234.846 490.457 242 487.246C251.314 483.066 258.055 475.186 263.717 467C275.907 449.376 285.02 428.173 292 408C298.795 409.599 305.172 407.293 312 407C308.837 405.673 305.414 406 302 406C308.593 388.023 314.805 369.888 321.745 352C328.07 335.698 335.072 318.973 339.335 302C341.516 293.317 345.093 285.384 348.258 277C349.733 273.094 350.743 268.286 354.214 265.589C357.719 262.865 363.727 262.552 368 262C358.745 258.117 347.614 263.297 339.479 254.775C333.401 248.409 334.674 239.683 337.025 232C341.477 217.443 346.774 203.323 351.911 189C354.504 181.771 356.32 173.113 361.532 167.188C366.669 161.35 377.472 163.424 381.081 156.867C392.354 136.38 385.467 100.813 358 98z"/><path style="fill:#d85a88;stroke:none" d="M220.667 100.333C220.222 100.778 221.278 100.722 221.333 100.667C221.778 100.222 220.722 100.278 220.667 100.333M242.667 106.333C242.222 106.778 243.278 106.722 243.333 106.667C243.778 106.222 242.722 106.278 242.667 106.333M260 106C261.957 108.788 265.136 109.52 268.285 110.728C275.823 113.62 284.104 115.371 292 117C291.455 118.635 291.635 118.455 290 119C293.484 120.305 293.672 115.662 294 113C282.554 109.94 271.998 106.001 260 106M374 106L375 107L374 106M247.667 107.333C247.222 107.778 248.278 107.722 248.333 107.667C248.778 107.222 247.722 107.278 247.667 107.333M251 108C252.248 108.685 252.548 108.749 254 109C252.752 108.315 252.452 108.251 251 108M257.667 110.333C257.222 110.778 258.278 110.722 258.333 110.667C258.778 110.222 257.722 110.278 257.667 110.333M320 111C320 129.218 314.305 148.94 303.605 163.906C296.562 173.757 281.708 167.999 280 157C270.995 157 264.576 158.687 256 161L257 163C253.067 164.034 250.136 166.41 246 166C241.698 169.26 236.325 168.01 232 172C230.67 170.247 229.753 169.33 228 168C228.426 170.469 229.132 172.645 230 175C222.763 176.343 216.854 177.473 210.34 181.25C207.745 182.754 206.199 185.48 203.522 186.856C200.309 188.508 196.381 188.388 193 189.711C189.073 191.247 185.127 192.144 181.171 193.501C179.575 194.048 177.978 195.265 176.211 194.763C175.021 194.425 173.935 193.413 173.138 192.512C167.042 185.624 174.323 181.558 180.015 177.667C198.193 165.239 216.246 152.563 235 141C228.972 139.352 221.907 146.573 217 149.54C203.997 157.401 191.176 166.204 179 175.241C173.823 179.083 167.861 181.992 165 188C168.961 191.541 171.465 196.135 175.093 199.985C181.475 206.758 189.024 213.116 196.001 219.285C201.116 223.809 205.907 228.714 213 229.787C221.685 231.101 230.548 229.207 239 227.514C241.462 227.021 244.351 227.399 246.674 226.4C249.935 224.998 252.042 221.029 254.669 218.725C259.557 214.436 263.865 214.242 270 215C270.365 211.433 271.811 208.452 272.625 205C275.305 193.644 277.456 176.845 289 171C291.788 179.394 302.677 175.65 307.181 170.791C314.39 163.015 316.003 152.751 319.31 143.039C321.202 137.484 324.249 132.923 325.245 127C326.319 120.617 326.364 114.309 320 111M265 112C266.248 112.685 266.548 112.749 268 113C266.752 112.315 266.452 112.251 265 112M268.667 113.333C268.222 113.778 269.278 113.722 269.333 113.667C269.778 113.222 268.722 113.278 268.667 113.333M380 113C380.684 114.58 380.805 114.777 382 116C381.316 114.42 381.195 114.223 380 113M279 116C280.248 116.685 280.548 116.749 282 117C280.752 116.315 280.452 116.251 279 116M314 117C313.998 134.731 303.476 148.027 298 164C303.342 162.266 305.421 156.836 307.586 152C312.347 141.366 316.968 128.733 317 117L314 117M287 118C288.248 118.685 288.548 118.749 290 119C288.752 118.315 288.452 118.251 287 118z"/><path style="fill:#6753a0;stroke:none" d="M324 131C322.749 134.859 320.639 138.288 319.31 142.09C315.313 153.525 313.59 167.468 302 174C306.17 175.213 309.742 172.491 312.005 168.981C316.794 161.555 318.052 151.69 321.39 143.576C323.017 139.621 325.493 135.212 324 131z"/><path style="fill:#dcb9cf;stroke:none" d="M365.015 164.028C358.003 167.617 355.075 178.059 352.88 185C347.444 202.192 338.592 219.14 335.465 237C333.832 246.328 340.137 254.82 349.996 250.95C357.371 248.055 359.827 240.886 362.424 234.039C366.072 224.422 369.008 214.553 372.598 205C375.015 198.569 378.247 191.952 378.896 185C379.652 176.899 378.808 156.967 365.015 164.028z"/><path style="fill:#d85a88;stroke:none" d="M362 165L363 166L362 165M361 166L362 167L361 166M359 169L360 170L359 169z"/><path style="fill:#6753a0;stroke:none" d="M115 199C112.817 209.438 106.782 222.118 114.419 231.985C118.391 237.116 123.246 238.127 129 240.1C135.35 242.278 141.415 244.658 148 246.116C155.109 247.689 161.944 250.452 169 252.24C183.934 256.023 199.209 259.286 214 263.71C224.094 266.729 236.349 273.119 247 270L247 268C230.65 263.03 213.584 259.786 197 255.522C184.561 252.323 172.458 247.602 160 244.654C147.864 241.783 127.88 240.431 119.585 229.791C111.716 219.697 116.969 210.257 117 199L115 199z"/><path style="fill:#d85a88;stroke:none" d="M341.333 216.667C341.278 216.722 341.222 217.778 341.667 217.333C341.722 217.278 341.778 216.222 341.333 216.667M274 219C273.049 231.036 270.693 242.496 264.776 253.09C262.87 256.503 261.146 260.398 257.699 262.566C254.735 264.431 251.379 263.731 248.09 264.129C244.956 264.508 242.196 265.793 239 266C243.362 267.899 250.227 270.931 254.999 270.852C268.079 270.634 271.869 254.831 274.742 245C277.011 237.24 283.752 224.249 274 219M340.333 219.667C340.278 219.722 340.222 220.778 340.667 220.333C340.722 220.278 340.778 219.222 340.333 219.667M118 228C118.936 229.949 119.392 230.55 121 232C120.064 230.051 119.608 229.45 118 228M68 238C68.0416 242.592 68.9384 245.899 71 250L76 250L78 246C74.4532 243.997 72.3763 241.276 70 238L68 238M147 246C148.506 246.683 149.315 246.826 151 247C149.494 246.317 148.685 246.174 147 246M171 248C172.248 248.685 172.548 248.749 174 249C172.752 248.315 172.452 248.251 171 248M174 249C175.248 249.685 175.549 249.749 177 250C175.752 249.315 175.452 249.251 174 249M182.667 251.333C182.222 251.778 183.278 251.722 183.333 251.667C183.778 251.222 182.722 251.278 182.667 251.333M186.667 252.333C186.222 252.778 187.278 252.722 187.333 252.667C187.778 252.222 186.722 252.278 186.667 252.333M175 253C176.248 253.685 176.548 253.749 178 254C176.752 253.315 176.452 253.251 175 253M190 253C191.248 253.685 191.548 253.749 193 254C191.752 253.315 191.452 253.251 190 253M193 254C194.248 254.685 194.549 254.749 196 255C194.752 254.315 194.452 254.251 193 254M196 255C197.248 255.685 197.549 255.749 199 256C197.752 255.315 197.452 255.251 196 255M201 256C202.248 256.685 202.549 256.749 204 257C202.752 256.315 202.452 256.251 201 256M205.667 257.333C205.222 257.778 206.278 257.722 206.333 257.667C206.778 257.222 205.722 257.278 205.667 257.333M193 258C194.248 258.685 194.549 258.749 196 259C194.752 258.315 194.452 258.251 193 258M210 258C211.248 258.685 211.548 258.749 213 259C211.752 258.315 211.452 258.251 210 258M213.667 259.333C213.222 259.778 214.278 259.722 214.333 259.667C214.778 259.222 213.722 259.278 213.667 259.333M216 260C217.248 260.685 217.548 260.749 219 261C217.752 260.315 217.452 260.251 216 260M203.667 261.333C203.222 261.778 204.278 261.722 204.333 261.667C204.778 261.222 203.722 261.278 203.667 261.333M225.667 262.333C225.222 262.778 226.278 262.722 226.333 262.667C226.778 262.222 225.722 262.278 225.667 262.333M84 263C85.2484 263.685 85.5484 263.749 87 264C85.7517 263.315 85.4515 263.251 84 263M210 263C211.769 263.779 213.036 263.912 215 264C213.231 263.221 211.964 263.088 210 263M236 265C237.248 265.685 237.548 265.749 239 266C237.752 265.315 237.452 265.251 236 265M221 266C222.248 266.685 222.548 266.749 224 267C222.752 266.315 222.452 266.251 221 266M225.667 267.333C225.222 267.778 226.278 267.722 226.333 267.667C226.778 267.222 225.722 267.278 225.667 267.333M135.667 278.333C135.222 278.778 136.278 278.722 136.333 278.667C136.778 278.222 135.722 278.278 135.667 278.333M200 296C201.248 296.685 201.548 296.749 203 297C201.752 296.315 201.452 296.251 200 296M220.667 302.333C220.222 302.778 221.278 302.722 221.333 302.667C221.778 302.222 220.722 302.278 220.667 302.333z"/><path style="fill:#010102;stroke:none" d="M373 302C371.291 313.574 365.793 325.106 361.684 336C356.447 349.889 352.058 364.454 346.045 378C342.79 385.332 339.293 393.107 337.666 401C337.071 403.887 336.339 407.91 337.742 410.683C340.317 415.771 350.797 413.57 355 412.406C370.958 407.984 382.942 397.468 390.762 383C398.461 368.757 399.334 349.165 393.533 334C389.028 322.222 381.627 312.567 375 302L373 302z"/><path style="fill:#d85a88;stroke:none" d="M148 306C147.994 315.46 143.949 330.303 131.997 330.848C127.82 331.038 124.817 328.063 121 327C122.543 330.507 124.438 334.135 128.015 335.972C137.527 340.857 149.073 329.166 151.539 321C153.128 315.742 154.388 308.1 148 306M238 307C239.248 307.685 239.548 307.749 241 308C239.752 307.315 239.452 307.251 238 307M241.667 308.333C241.222 308.778 242.278 308.722 242.333 308.667C242.778 308.222 241.722 308.278 241.667 308.333M245 309C246.248 309.685 246.549 309.749 248 310C246.752 309.315 246.452 309.251 245 309z"/><path style="fill:#6753a0;stroke:none" d="M153 314C151.066 325.412 143.306 335.885 131 337C142.227 341.665 157.513 324.784 153 314z"/><path style="fill:#d85a88;stroke:none" d="M268 316C267.316 317.58 267.195 317.777 266 319C267.506 319.683 268.315 319.826 270 320C269.489 318.048 269.267 317.543 268 316z"/><path style="fill:#010102;stroke:none" d="M276 317C279.231 322.13 284.094 324.286 289 327.579C292.813 330.14 296.404 333.275 301 334C296.947 326.132 284.449 318.933 276 317z"/><path style="fill:#dcb9cf;stroke:none" d="M219 326.742C210.571 329.967 204.872 342.261 206.144 350.91C207.359 359.184 217.037 361.814 224 358.991C232.88 355.391 234.204 347.263 235.129 339C235.402 336.555 236.922 333.692 235.843 331.29C233.305 325.638 224.1 324.791 219 326.742z"/><path style="fill:#d85a88;stroke:none" d="M237 332C234.778 337.243 235.849 342.864 233.633 348C229.993 356.434 215.234 366.415 209 355C206.717 362.082 217.829 364.588 223 363.856C235.552 362.077 244.227 342.163 237 332M51 334.468C35.5292 337.467 31.6571 355.789 33.2863 369C34.5868 379.547 41.5156 387.964 53 385.725C67.3767 382.923 75.2954 364.353 72.7369 351.17C70.6592 340.464 62.1746 332.303 51 334.468M88 335C88.0157 340.702 89.201 346.301 88.9606 352C88.1851 370.386 81.8661 387.65 66 398.104C56.2525 404.527 45.6444 403.592 35 399.745C33.3715 399.156 26.5774 394.586 25.9213 398.319C25.3918 401.331 29.9628 403.695 32.0008 404.957C39.4907 409.595 48.3312 411.912 57 410.192C77.9745 406.03 95.4828 386.999 96 365L97 369C101.722 357.746 95.8283 344.531 90 335L88 335z"/><path style="fill:#dcb9cf;stroke:none" d="M41 368C44.0448 367.759 47.8977 367.693 50.5448 365.992C52.5841 364.68 53.8641 362.642 56.054 361.458C59.3174 359.695 64.7197 358.417 66.3966 354.726C68.4688 350.165 65.9223 344.492 65 340C61.6967 340 58.1781 339.694 55.0008 340.769C43.0911 344.794 41 357.301 41 368z"/><path style="fill:#d85a88;stroke:none" d="M163 365C163 383.69 154.415 400.98 134 403.791C129.081 404.468 124.748 402.804 120 402C122.344 410.173 130.645 410.76 138 409.7C151.933 407.692 162.035 397.129 166.074 384.09C168.005 377.856 170.766 367.971 163 365z"/><path style="fill:#dcb9cf;stroke:none" d="M236 394C234.538 390 231.504 387.322 228 384.889C208.272 371.189 186.046 394.228 186 414C185.985 420.35 186.502 430.726 193.028 434.278C196.151 435.978 201.545 435.032 205 435C210.245 434.951 215.561 432.857 219.778 429.694C227.681 423.767 231.946 415.749 232.917 406C233.276 402.392 231.277 394.692 236 394z"/><path style="fill:#d85a88;stroke:none" d="M227 384C228.223 385.195 228.42 385.316 230 386C228.777 384.805 228.58 384.684 227 384M111.333 393.667C111.278 393.722 111.222 394.778 111.667 394.333C111.722 394.278 111.778 393.222 111.333 393.667M234 393C232.082 399.489 233.343 406.413 231.286 413C228.227 422.797 219.01 431.744 209 434.432C204.005 435.773 198.135 435 193 435C201.941 447.006 219.686 442.12 228.961 432.957C239.877 422.173 241.998 406.885 237 393L234 393M400 405C391.178 417.257 375.188 420.46 363 428C367.257 429.476 372.095 426.746 376 424.908C385.413 420.477 397.962 415.261 402 405L400 405M189.333 429.667C189.278 429.722 189.222 430.778 189.667 430.333C189.722 430.278 189.778 429.222 189.333 429.667z"/><path style="fill:#010102;stroke:none" d="M49 442C56.2132 448.69 69.7168 449.985 79 452.771C96.9041 458.145 114.987 462.992 133 468.09C142.52 470.783 153.07 475.707 163 476C154.983 469.53 140.749 468.487 131 465.492C114.445 460.404 97.6027 456.341 81.0394 451.335C70.8177 448.245 59.5904 443.061 49 442z"/><path style="fill:#6753a0;stroke:none" d="M56 446L57 447L56 446M59 447C60.2483 447.685 60.5484 447.749 62 448C60.7516 447.315 60.4516 447.251 59 447M62 448C63.2483 448.685 63.5484 448.749 65 449C63.7516 448.315 63.4516 448.251 62 448M65 449C66.6932 450.062 68.0404 450.52 70 451C68.4602 449.197 67.4025 449.168 65 449M77 452C78.7885 453.422 79.7057 453.697 82 454C80.3068 452.938 78.9596 452.48 77 452M82.6667 454.333C82.2222 454.778 83.2778 454.722 83.3333 454.667C83.7778 454.222 82.7222 454.278 82.6667 454.333M91 456L92 457L91 456M94.6667 457.333C94.2222 457.778 95.2778 457.722 95.3333 457.667C95.7778 457.222 94.7222 457.278 94.6667 457.333M96 458C97.2484 458.685 97.5484 458.749 99 459C97.7517 458.315 97.4516 458.251 96 458M100 459C101.969 460.063 103.798 460.532 106 461C103.943 459.418 102.612 459.174 100 459M108.667 461.333C108.222 461.778 109.278 461.722 109.333 461.667C109.778 461.222 108.722 461.278 108.667 461.333M111.667 462.333C111.222 462.778 112.278 462.722 112.333 462.667C112.778 462.222 111.722 462.278 111.667 462.333M113 463C114.506 463.683 115.315 463.826 117 464C115.494 463.317 114.685 463.174 113 463M117.667 464.333C117.222 464.778 118.278 464.722 118.333 464.667C118.778 464.222 117.722 464.278 117.667 464.333M120 465C121.506 465.683 122.315 465.826 124 466C122.494 465.317 121.685 465.174 120 465M124 466C125.248 466.685 125.548 466.749 127 467C125.752 466.315 125.452 466.251 124 466M127 467C128.506 467.683 129.315 467.826 131 468C129.494 467.317 128.685 467.174 127 467M131 468C132.969 469.063 134.798 469.532 137 470C134.943 468.418 133.612 468.174 131 468M142 471C143.248 471.685 143.548 471.749 145 472C143.752 471.315 143.452 471.251 142 471M146 472C147.248 472.685 147.548 472.749 149 473C147.752 472.315 147.452 472.251 146 472M149 473C150.248 473.685 150.548 473.749 152 474C150.752 473.315 150.452 473.251 149 473M152 474C153.769 474.779 155.036 474.912 157 475C155.231 474.221 153.964 474.088 152 474z"/><path style="fill:#010102;stroke:none" d="M164 476C165.506 476.683 166.315 476.826 168 477C166.494 476.317 165.685 476.174 164 476M169 477L169 479C181.038 481.04 192.72 486.745 205 487C198.606 483.575 190.969 482.617 184 480.866C178.897 479.584 174.294 477.436 169 477z"/><path style="fill:#6753a0;stroke:none" d="M178.667 481.333C178.222 481.778 179.278 481.722 179.333 481.667C179.778 481.222 178.722 481.278 178.667 481.333M180 482C183.061 483.846 186.507 484.322 190 485C186.999 482.544 183.825 482.167 180 482M193.667 485.333C193.222 485.778 194.278 485.722 194.333 485.667C194.778 485.222 193.722 485.278 193.667 485.333z"/></svg>